<?xml version="1.0" encoding="UTF-8"?>
<svg width="18px" height="18px" viewBox="0 0 18 18" version="1.1" xmlns="http://www.w3.org/2000/svg" xmlns:xlink="http://www.w3.org/1999/xlink">
    <!-- Generator: Sketch 52.5 (67469) - http://www.bohemiancoding.com/sketch -->
    <title>bfq_dmsz</title>
    <desc>Created with Sketch.</desc>
    <g id="bfq_dmsz" stroke="none" stroke-width="1" fill="none" fill-rule="evenodd">
        <g fill-rule="nonzero">
            <rect id="Rectangle-3" x="0" y="0" width="18" height="18"></rect>
            <path d="M12,6 L13,6 C13.5522847,6 14,6.44771525 14,7 C14,7.55228475 13.5522847,8 13,8 L12,8 C11.4477153,8 11,7.55228475 11,7 C11,6.44771525 11.4477153,6 12,6 Z M5,10 L7,10 C7.55228475,10 8,10.4477153 8,11 C8,11.5522847 7.55228475,12 7,12 L5,12 C4.44771525,12 4,11.5522847 4,11 C4,10.4477153 4.44771525,10 5,10 Z M5,6 L9,6 C9.55228475,6 10,6.44771525 10,7 C10,7.55228475 9.55228475,8 9,8 L5,8 C4.44771525,8 4,7.55228475 4,7 C4,6.44771525 4.44771525,6 5,6 Z M7,15 C7.55228475,15 8,15.4477153 8,16 C8,16.5522847 7.55228475,17 7,17 L3,17 C1.4536027,17 0,15.5463973 0,14 L0,4 C0,2.4536027 1.4536027,1 3,1 L15,1 C16.5463973,1 18,2.4536027 18,4 L18,8 C18,8.55228475 17.5522847,9 17,9 C16.4477153,9 16,8.55228475 16,8 L16,4 C16,3.5581722 15.4418278,3 15,3 L3,3 C2.5581722,3 2,3.5581722 2,4 L2,14 C2,14.4418278 2.5581722,15 3,15 L7,15 Z M10.9569192,16.4047452 C10.5850678,16.0116393 10.3033776,15.5323607 10.1449393,15 L10,15 C9.44771525,15 9,14.5522847 9,14 C9,13.4477153 9.44771525,13 10,13 L10.1449393,13 C10.3033776,12.4676393 10.5850678,11.9883607 10.9569192,11.5952548 L10.8839746,11.4689111 C10.6078322,10.9906185 10.7717074,10.3790281 11.25,10.1028857 C11.7282926,9.82674331 12.339883,9.99061846 12.6160254,10.4689111 L12.6885592,10.5945433 C12.9489806,10.5327225 13.2206689,10.5 13.5,10.5 C13.7793311,10.5 14.0510194,10.5327225 14.3114408,10.5945433 L14.3839746,10.4689111 C14.660117,9.99061846 15.2717074,9.82674331 15.75,10.1028857 C16.2282926,10.3790281 16.3921678,10.9906185 16.1160254,11.4689111 L16.0430808,11.5952548 C16.4149322,11.9883607 16.6966224,12.4676393 16.8550607,13 L17,13 C17.5522847,13 18,13.4477153 18,14 C18,14.5522847 17.5522847,15 17,15 L16.8550607,15 C16.6966224,15.5323607 16.4149322,16.0116393 16.0430808,16.4047452 L16.1160254,16.5310889 C16.3921678,17.0093815 16.2282926,17.6209719 15.75,17.8971143 C15.2717074,18.1732567 14.660117,18.0093815 14.3839746,17.5310889 L14.3114408,17.4054567 C14.0510194,17.4672775 13.7793311,17.5 13.5,17.5 C13.2206689,17.5 12.9489806,17.4672775 12.6885592,17.4054567 L12.6160254,17.5310889 C12.339883,18.0093815 11.7282926,18.1732567 11.25,17.8971143 C10.7717074,17.6209719 10.6078322,17.0093815 10.8839746,16.5310889 L10.9569192,16.4047452 Z M13.5,15.5 C14.3284271,15.5 15,14.8284271 15,14 C15,13.1715729 14.3284271,12.5 13.5,12.5 C12.6715729,12.5 12,13.1715729 12,14 C12,14.8284271 12.6715729,15.5 13.5,15.5 Z" id="合并形状" fill="#999999"></path>
        </g>
    </g>
</svg>