<?xml version="1.0" encoding="UTF-8"?>
<svg width="88px" height="80px" viewBox="0 0 88 80" version="1.1" xmlns="http://www.w3.org/2000/svg" xmlns:xlink="http://www.w3.org/1999/xlink">
    <!-- Generator: Sketch 52.5 (67469) - http://www.bohemiancoding.com/sketch -->
    <title>bfq_zmqp</title>
    <desc>Created with Sketch.</desc>
    <g id="bfq_zmqp" stroke="none" stroke-width="1" fill="none" fill-rule="evenodd">
        <g transform="translate(8.000000, 4.000000)" fill-rule="nonzero">
            <rect id="Rectangle-5" x="0" y="0" width="72" height="72"></rect>
            <path d="M52,8 L64,8 C66.209139,8 68,9.790861 68,12 L68,24 M68,48 L68,60 C68,62.209139 66.209139,64 64,64 L52,64 M20,64 L8,64 C5.790861,64 4,62.209139 4,60 L4,48 M4,24 L4,12 C4,9.790861 5.790861,8 8,8 L20,8" id="形状" stroke="#FFFFFF" stroke-width="8" stroke-linecap="round" stroke-linejoin="round"></path>
            <path d="M8,12 L24.1964414,25.8826641 L28.0388812,29.1761839 M44.0842796,42.9293825 L48.1471296,46.4118253 L64,60" id="形状" stroke="#FFFFFF" stroke-width="8" stroke-linecap="round" stroke-linejoin="round"></path>
            <path d="M64,12 L44.0154143,29.1296449 M28.0524592,42.8121778 L24.223434,46.0941995 L8,60" id="形状" stroke="#FFFFFF" stroke-width="8" stroke-linecap="round" stroke-linejoin="round"></path>
        </g>
    </g>
</svg>