<?xml version="1.0" encoding="UTF-8"?>
<svg width="13px" height="13px" viewBox="0 0 13 13" version="1.1" xmlns="http://www.w3.org/2000/svg" xmlns:xlink="http://www.w3.org/1999/xlink">
    <!-- Generator: Sketch 52.5 (67469) - http://www.bohemiancoding.com/sketch -->
    <title>icon_comment_z</title>
    <desc>Created with Sketch.</desc>
    <g id="icon_comment_z" stroke="none" stroke-width="1" fill="none" fill-rule="evenodd">
        <g id="zan1" fill="#00aeec" fill-rule="nonzero">
            <path d="M1.5,3 C2.32842712,3 3,3.67157288 3,4.5 L3,10.5 C3,11.3284271 2.32842712,12 1.5,12 C0.671572875,12 1.55431223e-15,11.3284271 -1.11022302e-16,10.5 L-1.11022302e-16,4.5 C-1.11022302e-16,3.67157288 0.671572875,3 1.5,3 Z" id="Rectangle-15"></path>
            <path d="M10.7246875,3.89643424 C12.1752739,3.89643424 13.2906767,5.2816492 12.9375652,6.4715159 L11.8541027,10.1224183 C11.4149925,11.6020713 10.9188498,12 9.42453258,12 L4.5,12 C4.22385763,12 4,11.7761424 4,11.5 L4,4.35 C4,4.18011043 4.08626541,4.02184431 4.22904733,3.92978024 L5.23800382,3.28091645 C5.56690686,3.03176287 5.79353102,2.74149373 5.95364249,2.39501898 C6.09292419,2.09361902 6.12207069,1.98164226 6.27748288,1.25995956 C6.4899378,0.273389347 6.86373669,-0.161149968 7.79741046,0.0422288616 C9.28421798,0.366094845 9.57194451,1.73418173 8.84301599,3.89643424 L10.7246875,3.89643424 Z" id="Path-4"></path>
        </g>
    </g>
</svg>