<?xml version="1.0" encoding="UTF-8"?>
<svg width="13px" height="13px" viewBox="0 0 13 13" version="1.1" xmlns="http://www.w3.org/2000/svg" xmlns:xlink="http://www.w3.org/1999/xlink">
    <!-- Generator: Sketch 52.5 (67469) - http://www.bohemiancoding.com/sketch -->
    <title>icon_comment_pl</title>
    <desc>Created with Sketch.</desc>
    <g id="icon_comment_pl" stroke="none" stroke-width="1" fill="none" fill-rule="evenodd">
        <g id="icon_文章评论-copy-2" fill="#00aeec" fill-rule="nonzero">
            <path d="M4.07002747,12 L0.637360564,12.980762 C0.317952461,13.0720214 0,12.8321894 0,12.5 L0,4 C0,2.72385763 0.723857625,2 2,2 L11,2 C12.2761424,2 13,2.72385763 13,4 L13,10 C13,11.2761424 12.2761424,12 11,12 L4.07002747,12 Z M9,5 C8.44771525,5 8,5.44771525 8,6 L8,7 C8,7.55228475 8.44771525,8 9,8 C9.55228475,8 10,7.55228475 10,7 L10,6 C10,5.44771525 9.55228475,5 9,5 Z M4,5 C3.44771525,5 3,5.44771525 3,6 L3,7 C3,7.55228475 3.44771525,8 4,8 C4.55228475,8 5,7.55228475 5,7 L5,6 C5,5.44771525 4.55228475,5 4,5 Z" id="Combined-Shape"></path>
        </g>
    </g>
</svg>