<?xml version="1.0" encoding="UTF-8"?>
<svg width="22px" height="20px" viewBox="0 0 22 20" version="1.1" xmlns="http://www.w3.org/2000/svg" xmlns:xlink="http://www.w3.org/1999/xlink">
    <!-- Generator: Sketch 52.5 (67469) - http://www.bohemiancoding.com/sketch -->
    <title>bfq_sz</title>
    <desc>Created with Sketch.</desc>
    <g id="bfq_sz" stroke="none" stroke-width="1" fill="none" fill-rule="evenodd">
        <g transform="translate(2.000000, 1.000000)" fill-rule="nonzero">
            <rect id="Rectangle-9" x="0" y="0" width="18" height="18"></rect>
            <path d="M2.25413886,10.8756898 L0.835601013,10.6392668 C0.353413042,10.5589022 -6.20389569e-10,10.1417121 -6.20389629e-10,9.65287292 L-6.20388407e-10,8.3471271 C-6.20388467e-10,7.85828795 0.353413042,7.44109784 0.835601012,7.36073318 L2.25413886,7.1243102 C2.57517286,5.96722368 3.1859219,4.93064186 4.00336079,4.09758995 L3.49815378,2.74905649 C3.32665763,2.29128713 3.51124834,1.7766274 3.93459547,1.53220783 L5.06540452,0.879334917 C5.48875164,0.634915341 6.0267554,0.732384959 6.33744722,1.10978966 L7.25152278,2.22013885 C7.81039913,2.07642885 8.39627411,2 9,2 C9.59811449,2 10.1845711,2.07549042 10.7482464,2.22041917 L11.6625528,1.10978966 C11.9732446,0.732384954 12.5112483,0.634915336 12.9345955,0.879334912 L14.0654045,1.53220782 C14.4887516,1.7766274 14.6733424,2.29128713 14.5018462,2.74905649 L13.9966397,4.09758865 C14.8243183,4.94105176 15.4282546,5.98104552 15.7455832,7.12426387 L17.164399,7.36073318 C17.646587,7.44109784 18,7.85828795 18,8.3471271 L18,9.65287292 C18,10.1417121 17.646587,10.5589022 17.164399,10.6392668 L15.7458611,10.8756898 C15.4248271,12.0327763 14.8140781,13.0693582 13.9966392,13.9024101 L14.5018462,15.2509435 C14.6733424,15.7087129 14.4887516,16.2233726 14.0654045,16.4677922 L12.9345955,17.1206651 C12.5112483,17.3650847 11.9732446,17.2676151 11.6625528,16.8902104 L10.7484772,15.7798612 C10.1896009,15.9235711 9.60372589,16 9,16 C8.39627411,16 7.81039913,15.9235711 7.25152279,15.7798612 L6.33744722,16.8902103 C6.0267554,17.267615 5.48875164,17.3650847 5.06540452,17.1206651 L3.93459547,16.4677922 C3.51124834,16.2233726 3.32665763,15.7087129 3.49815378,15.2509435 L4.00336079,13.9024101 C3.1859219,13.0693581 2.57517286,12.0327763 2.25413886,10.8756898 Z M9,14 C11.7614237,14 14,11.7614237 14,9 C14,8.58819837 13.9504278,8.18373483 13.8534108,7.79230488 C13.6311537,6.89557482 13.1626261,6.08076167 12.5052094,5.43439752 C11.575565,4.52038249 10.3301433,4 9,4 C6.23857625,4 4,6.23857625 4,9 C4,11.7614237 6.23857625,14 9,14 Z" id="Combined-Shape" fill="#FFFFFF"></path>
            <circle id="Oval-4" fill="#FFFFFF" cx="9" cy="9" r="2"></circle>
        </g>
    </g>
</svg>