<?xml version="1.0" encoding="UTF-8"?>
<svg width="88px" height="80px" viewBox="0 0 88 80" version="1.1" xmlns="http://www.w3.org/2000/svg" xmlns:xlink="http://www.w3.org/1999/xlink">
    <!-- Generator: Sketch 52.5 (67469) - http://www.bohemiancoding.com/sketch -->
    <title>bfq_yl_sm</title>
    <desc>Created with Sketch.</desc>
    <g id="bfq_yl_sm" stroke="none" stroke-width="1" fill="none" fill-rule="evenodd">
        <g id="bfq_yl-sm" transform="translate(8.000000, 4.000000)" fill-rule="nonzero">
            <rect id="Rectangle-19" x="0" y="0" width="72" height="72"></rect>
            <path d="M52.1580141,60 C61.3250109,56.8903915 68,47.333654 68,36.0264403 C68,24.6543588 61.2482045,15.0528957 52,12" id="Oval-3" stroke-opacity="0.6" stroke="#000000" stroke-width="6.4" stroke-linecap="round" stroke-linejoin="round"></path>
            <path d="M52.0276525,44 C53.6318769,42.9634638 54.8,39.7778847 54.8,36.0088134 C54.8,32.2181196 53.6184358,29.0176319 52,28" id="Oval-3-Copy" stroke="#000000" stroke-width="6.4" stroke-linecap="round" stroke-linejoin="round"></path>
            <path d="M20.4922907,20 C20.7429872,19.5425551 21.0837224,19.1330221 21.5012198,18.7990242 L33.5012198,9.19902415 C35.2262676,7.81898596 37.743437,8.09867146 39.1234752,9.8237192 C39.690877,10.5329714 40,11.4142134 40,12.3224994 L40,59.6775006 C40,61.8866396 38.209139,63.6775006 36,63.6775006 C35.091714,63.6775006 34.210472,63.3683776 33.5012198,62.8009758 L21.5012198,53.2009758 C21.0837224,52.8669779 20.7429872,52.4574449 20.4922907,52 L12,52 C7.581722,52 4,48.418278 4,44 L4,28 C4,23.581722 7.581722,20 12,20 L20.4922907,20 Z" id="Combined-Shape" stroke="#000000" stroke-width="8" stroke-linecap="round" stroke-linejoin="round"></path>
        </g>
    </g>
</svg>