<?xml version="1.0" encoding="UTF-8"?>
<svg width="88px" height="80px" viewBox="0 0 88 80" version="1.1" xmlns="http://www.w3.org/2000/svg" xmlns:xlink="http://www.w3.org/1999/xlink">
    <!-- Generator: Sketch 52.5 (67469) - http://www.bohemiancoding.com/sketch -->
    <title>bfq_yl_no</title>
    <desc>Created with Sketch.</desc>
    <g id="bfq_yl_no" stroke="none" stroke-width="1" fill="none" fill-rule="evenodd">
        <g id="bfq_yl-no" transform="translate(8.000000, 4.000000)" fill-rule="nonzero">
            <rect id="Rectangle-19" x="0" y="0" width="72" height="72"></rect>
            <path d="M20.4922907,20 C20.7429872,19.5425551 21.0837224,19.1330221 21.5012198,18.7990242 L33.5012198,9.19902415 C35.2262676,7.81898596 37.743437,8.09867146 39.1234752,9.8237192 C39.690877,10.5329714 40,11.4142134 40,12.3224994 L40,59.6775006 C40,61.8866396 38.209139,63.6775006 36,63.6775006 C35.091714,63.6775006 34.210472,63.3683776 33.5012198,62.8009758 L21.5012198,53.2009758 C21.0837224,52.8669779 20.7429872,52.4574449 20.4922907,52 L12,52 C7.581722,52 4,48.418278 4,44 L4,28 C4,23.581722 7.581722,20 12,20 L20.4922907,20 Z" id="Combined-Shape" stroke="#FFFFFF" stroke-width="8" stroke-linecap="round" stroke-linejoin="round"></path>
            <path d="M58,29.70182 L63.9348488,22.6289427 C65.3548559,20.936644 67.8778783,20.7159082 69.570177,22.1359154 C71.2624756,23.5559225 71.4832115,26.0789449 70.0632043,27.7712436 L63.2216292,35.9247153 L70.0632043,44.0781871 C71.4832115,45.7704858 71.2624756,48.2935081 69.570177,49.7135153 C67.8778783,51.1335225 65.3548559,50.9127866 63.9348488,49.220488 L58,42.1476106 L52.0651512,49.220488 C50.6451441,50.9127866 48.1221217,51.1335225 46.429823,49.7135153 C44.7375244,48.2935081 44.5167885,45.7704858 45.9367957,44.0781871 L52.7783708,35.9247153 L45.9367957,27.7712436 C44.5167885,26.0789449 44.7375244,23.5559225 46.429823,22.1359154 C48.1221217,20.7159082 50.6451441,20.936644 52.0651512,22.6289427 L58,29.70182 Z" id="合并形状" fill="#FFFFFF"></path>
        </g>
    </g>
</svg>